<svg width="10" height="5" viewBox="0 0 10 5" fill="none" xmlns="http://www.w3.org/2000/svg">
<path d="M1.94212 0.173787C1.65151 -0.0811744 1.20924 -0.0522758 0.954274 0.238334C0.699313 0.528943 0.728211 0.971215 1.01882 1.22618L1.94212 0.173787ZM5.12832 3.90036L4.66667 4.42655L5.12836 4.83161L5.59001 4.42651L5.12832 3.90036ZM9.23721 1.22614C9.5278 0.971149 9.55666 0.528874 9.30167 0.238287C9.04668 -0.0522996 8.60441 -0.0811594 8.31382 0.173827L9.23721 1.22614ZM1.01882 1.22618L4.66667 4.42655L5.58996 3.37416L1.94212 0.173787L1.01882 1.22618ZM5.59001 4.42651L9.23721 1.22614L8.31382 0.173827L4.66662 3.3742L5.59001 4.42651Z" fill="white"/>
</svg>
